
        <svg xmlns="http://www.w3.org/2000/svg" xmlns:xlink="http://www.w3.org/1999/xlink" version="1.1" width="3299.549711539571" 
        height="1318.6178301971918" viewBox="0 0 3299.549711539571 1318.6178301971918">
			
			<g transform="scale(14.97748557697855) translate(10, 10)">
				<defs id="SvgjsDefs3917"><linearGradient id="SvgjsLinearGradient3924"><stop id="SvgjsStop3925" stop-color="#616161" offset="0"></stop><stop id="SvgjsStop3926" stop-color="#e6e7e8" offset="0.5"></stop><stop id="SvgjsStop3927" stop-color="#616161" offset="1"></stop></linearGradient></defs><g id="SvgjsG3918" featureKey="nameLeftFeature-0" transform="matrix(2.4199965723580767,0,0,2.4199965723580767,3.5800034276419233,-2.1959874365384078)" fill="#795744"><path d="M1 20 l0 -16 l1.8 0 l2.62 9.8 l-0.02 -0.2 l0 -9.6 l2 0 l0 16 l-1.8 0 l-2.62 -8.8 l0.02 0.2 l0 8.6 l-2 0 z M10.200000000000001 11.58 c0 -5.58 0 -7.78 2.8 -7.78 c2.06 0 2.62 1.26 2.76 4.28 l-1.86 0 c-0.08 -2.18 -0.3 -2.68 -0.9 -2.68 c-0.92 0 -0.92 0.98 -0.92 6.18 c0 5.78 0 6.62 0.92 6.62 c0.66 0 0.86 -0.5 0.9 -3.08 l1.88 0 c-0.12 3.7 -0.62 5.08 -2.78 5.08 c-2.8 0 -2.8 -2.22 -2.8 -8.62 z"></path></g><g id="SvgjsG3919" featureKey="inlineSymbolFeature-0" transform="matrix(0.815811576257344,0,0,0.815811576257344,38.82505384382327,-5.139117488210345)" fill="url(#SvgjsLinearGradient3924)"><g xmlns="http://www.w3.org/2000/svg" fill="none" stroke="black" font-family="Times New Roman" font-size="16" transform="scale(1 -1)"><g transform="translate(0 -96)"><g><path d="M 21.633,34.925 C 24.973,46.855 40.837,53.71 46.922,66.223 C 49.866,72.279 48.49,83.461 43.464,87.939 C 43.197,88.178 42.09,90.326 43.217,89.521 C 54.416,81.327 63.521,70.509 59.309,60.068 C 53.464,45.577 38.409,38.34 38.519,23.585 C 38.566,17.447 43.088,12.523 48.838,7.375 L 49.073,6.299 C 34.143,10.56 17.742,21.028 21.633,34.925 Z M 59.314,18.723 C 67.987,26.524 73.282,31.263 71.043,40.298 C 73.766,36.119 76.295,30.323 74.135,25.806 C 72.203,21.769 70.28,18.956 63.244,15.02 C 59.515,12.935 56.712,10.677 54.37,6.898 C 54.248,10.853 55.011,14.852 59.314,18.723 Z M 49.686,32.153 C 53.003,38.255 57.845,42.622 62.538,48.882 C 65.869,53.325 68.92,60.704 65.731,66.728 L 65.937,67.016 C 70.824,61.556 71.028,52.654 69.495,46.059 C 67.086,35.69 58.5,31.5 53.511,23.918 C 51.557,20.948 50.446,17.311 51,13.5 C 45.461,18.021 46.717,26.69 49.686,32.153 Z" stroke-linejoin="miter" stroke-linecap="round" stroke="none" stroke-width="0.75" fill="url(#SvgjsLinearGradient3924)" marker-start="none" marker-end="none" stroke-miterlimit="79.8403193612775"></path></g></g></g></g><g id="SvgjsG3920" featureKey="nameRightFeature-0" transform="matrix(3.009158704518781,0,0,3.009158704518781,101.12546768959001,-10.5922493441011)" fill="#795744"><path d="M10.34 17.58 c0 0.02 0 0.06 0.04 0.06 c0.02 0 0.02 -0.02 0.04 -0.02 c0.02 -0.06 -0.04 -0.04 -0.08 -0.04 c0.54 -0.5 1.12 -0.9 1.66 -1.38 c0.02 0.04 0.04 0.08 0.1 0.08 c-0.1 0.34 -0.22 0.6 -0.52 0.74 c-0.04 0.08 0.04 0.04 0.08 0.04 c-0.08 0.12 -0.2 0.28 -0.3 0.24 c-0.06 0.02 0.02 0.04 0 0.1 c-0.22 0.08 -0.34 0.14 -0.44 0.36 c-0.28 0.02 -0.5 0.3 -0.74 0.44 c0.18 0.1 0.24 -0.22 0.48 -0.22 c0.02 0.06 -0.04 0.04 -0.04 0.1 c0.06 0 0.06 -0.08 0.16 -0.06 c0 -0.08 -0.06 -0.08 -0.02 -0.16 c0.18 0.08 0.24 -0.16 0.42 -0.16 l0 0.14 c-0.12 0 -0.2 0.16 -0.3 0.1 c0 0.04 0.02 0.08 0.04 0.08 c-0.46 0.48 -1.16 0.84 -1.66 1.24 c-0.02 0 -0.02 -0.04 -0.04 -0.06 c-0.78 0.72 -1.78 1.22 -2.52 1.98 c0.06 0.9 0.42 1.88 0.28 2.9 c-0.08 0.34 -0.28 0.76 -0.5 1.1 c-0.42 0.36 -1.1 0.84 -1.84 0.58 c-0.54 -0.32 -0.8 -0.92 -0.98 -1.58 c-0.04 -0.28 -0.08 -0.48 0 -0.72 c0.46 -1.2 1.36 -2.04 2.24 -2.92 c0.02 -0.22 -0.04 -0.42 -0.02 -0.66 l0.08 0 c-0.1 -0.7 0.04 -1.42 0.06 -2.36 c0.32 -0.68 0.46 -1.38 1.06 -1.78 c0.38 0.16 0.82 0.36 0.68 0.82 c-0.26 -0.02 -0.38 0.1 -0.5 0.2 c-0.58 1.18 -0.74 2.06 -0.6 3.38 c0.8 -0.52 1.62 -1.2 2.42 -1.64 c0 -0.04 -0.04 -0.04 -0.02 -0.08 c0.24 -0.08 0.3 -0.32 0.62 -0.34 c0 -0.04 -0.04 -0.06 0 -0.08 c0.08 0 0 0.02 0.02 0.08 c0.24 -0.18 0.32 -0.4 0.64 -0.5 z M11.78 16.5 c0.02 0 0 -0.02 0 0 l0 0 z M11.719999999999999 16.64 c-0.02 -0.08 0.04 -0.08 0.04 -0.12 c-0.08 -0.02 -0.12 0.1 -0.04 0.12 z M11.58 16.68 c-0.06 0.08 0.08 -0.06 0 0 l0 0 z M11.48 16.759999999999998 c-0.04 0.02 0 0.02 0 0 c0.02 -0.02 0 -0.04 0 0 z M11.64 16.82 c0.06 0.02 0.12 -0.06 0.06 -0.06 c-0.02 0.04 -0.08 0.02 -0.06 0.06 z M11.48 16.92 c0 0.04 0 0.06 0.02 0.08 c-0.14 0.04 -0.18 0.1 -0.26 0.22 c0.2 -0.04 0.3 -0.26 0.36 -0.32 c-0.02 -0.06 -0.08 0.02 -0.12 0.02 z M11.14 17.02 c-0.1 0.06 -0.2 0.12 -0.26 0.22 c0.1 -0.06 0.2 -0.12 0.26 -0.22 c0.04 0.02 0.1 -0.06 0.04 -0.08 c0 0.04 -0.04 0.04 -0.04 0.08 z M11.18 17.259999999999998 c0.04 0.1 0.04 -0.1 0 0 l0 0 z M10.94 17.48 c0.04 -0.06 0.1 0.02 0.18 0 c-0.08 -0.1 0 -0.1 0.02 -0.2 c-0.08 0.04 -0.26 0.1 -0.2 0.2 z M10.52 17.5 c-0.04 0.02 0 0.02 0 0 c0.08 -0.02 0.12 -0.08 0.18 -0.12 c-0.04 -0.04 -0.16 0.06 -0.18 0.12 z M10.76 17.54 c0.06 0.02 0.04 0.1 0.12 0.08 c0 -0.08 -0.06 -0.08 -0.1 -0.12 c0 0.02 -0.02 0.02 -0.02 0.04 z M10.42 17.82 c0.16 0.02 0.22 -0.24 0.34 -0.1 c0.02 -0.34 -0.3 0 -0.34 0.1 z M10.18 17.740000000000002 c0.04 0 0.06 -0.02 0.08 -0.04 c-0.06 0 -0.08 0.02 -0.08 0.04 z M10.1 17.78 c-0.08 -0.06 -0.06 0.1 0 0 l0 0 z M10.219999999999999 17.98 c-0.1 0 -0.16 0.06 -0.18 0.14 c-0.26 0.02 -0.4 0.16 -0.54 0.3 c0.08 0.04 0.1 -0.02 0.16 0.04 c0.04 -0.16 0.18 -0.24 0.36 -0.28 c-0.2 0.44 -0.66 0.5 -0.94 0.88 c0.3 -0.18 0.62 -0.34 0.86 -0.6 c-0.06 -0.04 -0.08 0.1 -0.1 0.02 c0.08 -0.08 0.36 -0.08 0.32 -0.22 c-0.02 0.1 -0.1 0.02 -0.1 -0.04 c0.06 -0.06 0.22 -0.14 0.16 -0.24 c0.1 0 0.14 -0.12 0.2 -0.08 c-0.02 -0.14 -0.16 -0.02 -0.22 0 c0 0.04 0.02 0.04 0.02 0.08 z M10.3 18 c0.02 0.1 0.02 -0.1 0 0 l0 0 z M10.8 18 c0.04 0.1 0.04 -0.1 0 0 l0 0 z M10.42 18.22 c0.02 0.02 -0.02 0 0 0 l0 0 z M9.32 18.34 c0.08 0 0.1 -0.08 0.14 -0.12 c-0.08 0.02 -0.14 0.04 -0.14 0.12 z M9.8 18.36 l0.04 0 l0 -0.04 l-0.04 0 l0 0.04 z M9.26 18.38 c0.02 0.02 0 0 0 0 l0 0 z M9.14 18.44 c0.1 0.02 0.02 -0.08 0 0 l0 0 z M9.36 18.54 c0.08 0 0.14 -0.02 0.12 -0.1 c-0.06 0 -0.12 0.02 -0.12 0.1 z M9.559999999999999 18.5 c0.02 0.08 0.06 -0.08 0 0 l0 0 z M7.3999999999999995 20.22 c0.12 -0.02 0.12 -0.18 0.22 -0.22 c0.02 0.04 -0.08 0.08 0 0.1 c0 -0.06 0.08 -0.02 0.06 -0.1 l-0.06 0 c0.04 -0.08 -0.1 -0.18 0.06 -0.2 c0.04 0.04 0 0.08 -0.02 0.12 c0.08 -0.04 0.12 -0.04 0.08 0.06 c0.2 -0.1 0.34 -0.28 0.54 -0.36 c0 -0.08 -0.12 -0.06 -0.14 -0.12 c0.04 -0.06 0.08 -0.12 0.16 -0.12 c0.02 0.04 -0.12 0.08 -0.04 0.14 c0.26 0.04 0.34 -0.24 0.58 -0.3 c-0.04 -0.08 0.06 -0.14 0.06 -0.26 c0.12 -0.02 0.4 -0.24 0.44 -0.34 c0 0.06 -0.06 0.06 -0.08 0 c0 -0.06 0.1 -0.02 0.08 -0.08 c-0.16 0.08 -0.34 0.12 -0.4 0.28 c0 0.04 0.06 0 0.06 0.04 c-0.04 0.02 -0.06 0.06 -0.14 0.06 c-0.12 -0.1 -0.5 0.18 -0.6 0.34 c0.04 0 0.12 -0.04 0.12 0.02 c-0.04 0 -0.04 0.04 -0.08 0.04 c-0.04 -0.02 -0.08 -0.06 -0.16 -0.04 c-0.06 0.04 -0.08 0.24 -0.14 0.18 c0 -0.04 0.06 -0.02 0.04 -0.08 c-0.18 0.1 -0.58 0.3 -0.48 0.48 c-0.32 -0.12 -0.48 0.2 -0.48 0.5 c0.1 0.02 0.04 -0.12 0.14 -0.1 c0 0.06 -0.04 0.08 0.04 0.1 c0.04 -0.04 0.06 -0.1 0.14 -0.1 l0 -0.04 z M9.42 18.58 c-0.06 0.08 0.08 -0.06 0 0 l0 0 z M9.58 18.6 c-0.06 0.08 0.08 -0.06 0 0 l0 0 z M8.94 19.04 c0 0.02 -0.02 -0.02 0 0 l0 0 z M8.959999999999999 19.1 c-0.06 0.08 0.08 -0.04 0 0 l0 0 z M5.9799999999999995 20.5 c0.02 -0.12 0 -0.34 -0.04 -0.46 c0.02 0.18 -0.02 0.34 0.04 0.46 z M6.92 20.18 l0.04 0 l0 -0.04 l-0.04 0 l0 0.04 z M6.699999999999999 20.28 c-0.02 0.18 0.14 0.18 0.02 0.32 c0.06 -0.02 0.08 0 0.08 0.06 c0.14 -0.06 0.34 -0.2 0.36 -0.3 c-0.04 0.04 -0.06 0.08 -0.12 0.1 c0 -0.12 0 -0.16 -0.06 -0.22 c-0.04 0.06 0.04 0.1 -0.02 0.14 c-0.02 0 -0.04 -0.1 -0.06 -0.02 c0.04 0.02 -0.02 0.14 -0.06 0.14 c0 -0.06 -0.06 -0.08 -0.06 -0.14 c0.06 -0.02 0.08 -0.12 0.12 -0.18 c-0.1 0.02 -0.12 0.08 -0.2 0.1 z M6.84 20.36 c0.02 0.02 0 -0.02 0 0 l0 0 z M6.739999999999999 20.72 c0.02 0.02 0 -0.02 0 0 l0 0 z M5.74 20.94 c-0.06 -0.02 -0.08 0.02 -0.1 0.06 c0.06 0 0.08 -0.04 0.1 -0.06 c0.06 0 0.08 -0.04 0.1 -0.08 c-0.06 0 -0.08 0.04 -0.1 0.08 z M5.54 21.14 c0 -0.02 0.06 -0.02 0.06 -0.06 l-0.08 0 c0 0.02 0 0.06 0.02 0.06 z M5.16 21.42 l0 0.04 l0.08 0 l0 -0.08 l-0.06 0 c0 0.02 0 0.04 -0.02 0.04 z M4.8999999999999995 21.8 l0.04 0 c0 0.02 0.02 0.02 0.04 0.02 c-0.02 -0.12 0.1 -0.14 0.12 -0.24 c-0.1 0.04 -0.18 0.1 -0.2 0.22 z M4.38 24.8 c0.36 0.28 0.92 -0.04 1.26 -0.2 c0.76 -0.56 0.86 -1.96 0.58 -2.98 c0 0 0 -0.02 -0.02 -0.02 c-0.78 0.8 -1.8 1.66 -1.82 3.2 z M4.88 21.84 c-0.06 0.08 0.08 -0.06 0 0 l0 0 z M4.56 22.2 c0.12 -0.06 0.28 -0.2 0.24 -0.34 c-0.06 0.14 -0.2 0.18 -0.24 0.34 z M4.52 22.28 c0.02 0.02 -0.02 -0.02 0 0 l0 0 z M4.4399999999999995 22.34 c0.02 0.02 0 0 0 0 l0 0 z M4.3 22.58 c0.08 -0.02 0.12 -0.08 0.14 -0.18 c-0.1 0 -0.1 0.12 -0.14 0.18 z M4.199999999999999 22.66 c0.12 0.04 -0.02 0.04 -0.02 0.12 c0.1 0 0.1 -0.08 0.12 -0.16 c-0.06 -0.02 -0.1 0 -0.1 0.04 z M4.14 22.88 c0.04 0 0.06 -0.02 0.06 -0.06 c-0.04 0.02 -0.08 0 -0.06 0.06 z M4.02 23.1 c0.06 0.02 0.06 -0.14 0.02 -0.12 c0.02 0.06 -0.04 0.06 -0.02 0.12 z M6.1 24.58 c0.02 0.02 -0.02 0 0 0 l0 0 z M6.46 25.08 c0.02 0.02 -0.02 0 0 0 l0 0 z M11.719999999999999 17.259999999999998 c-0.02 0.08 -0.1 0.1 -0.14 0.14 c-0.04 -0.12 0.08 -0.1 0.14 -0.14 z M11.58 17.46 c-0.04 0.16 -0.18 0.22 -0.34 0.26 c-0.08 -0.18 0.18 -0.22 0.34 -0.26 z M10.86 17.82 l0 0 s-0.02 -0.02 0 0 z M10.66 17.96 l0 0 c0.02 0.02 -0.02 -0.02 0 0 z M9.1 18.74 c0.08 -0.04 -0.06 0.08 0 0 l0 0 z M8.86 19.04 c0 0.08 -0.22 0.08 -0.14 0.16 c0 0.06 -0.12 0 -0.08 0.08 c-0.12 -0.1 0.12 -0.2 0.22 -0.24 z M8.54 19.1 c0.06 -0.08 0.04 0.08 0 0 l0 0 z M8.14 19.32 l0.04 0 l0 0.06 l-0.04 0 l0 -0.06 z M7.8999999999999995 19.54 c-0.04 0.12 -0.16 0.18 -0.26 0.24 c0.06 -0.1 0.16 -0.18 0.26 -0.24 z M8.059999999999999 19.56 l0 0 c0.02 0.02 0 0 0 0 z M7.9799999999999995 19.74 c-0.02 0.02 -0.04 0.04 -0.08 0.04 c-0.02 -0.06 0.04 -0.04 0.08 -0.04 z M7.46 19.92 l0 0 c0.02 0.02 0 0 0 0 z M7.34 19.94 c0.12 -0.12 -0.08 0.1 0 0 l0 0 z M7.46 19.98 c0.02 -0.02 0.02 0 0.04 0.02 l0 0.04 c-0.06 -0.04 -0.06 0.02 -0.1 -0.02 c0 -0.04 0.06 0 0.06 -0.04 z M7.18 20.12 l0 -0.08 c0.04 0 0.06 0.04 0.04 0.1 c-0.02 0 -0.02 -0.02 -0.04 -0.02 z M7.3999999999999995 20.22 c-0.06 -0.02 -0.16 -0.1 -0.08 -0.16 c0.06 0.02 0.08 0.08 0.08 0.16 z M7.18 20.12 c0 0.02 -0.02 0.04 -0.02 0.06 c-0.06 0.02 -0.04 -0.1 0.02 -0.06 z M17.04 6.0600000000000005 c-0.1 0.34 -0.08 0.78 -0.32 0.98 c-0.08 1.08 -0.6 2.12 -0.8 3.08 c0.46 0.06 1.08 0.04 1.58 0.02 c1.2 0.18 2.66 -0.08 3.84 0.58 c-0.1 0.04 -0.18 -0.02 -0.26 0.04 c-1.5 -0.54 -3.6 -0.28 -5.08 -0.5 c-0.1 0.02 -0.18 0.1 -0.2 0.22 c0 0.1 0.2 0.02 0.24 0.12 c0.02 -0.08 0.04 -0.18 0.08 -0.16 c0 0.1 0.24 0.18 0.32 0.04 c0.22 0.1 0.38 0.02 0.56 0.02 c0.06 0.02 0.04 0.1 0.08 0.14 c0.06 0 0.08 -0.02 0.08 -0.04 c0.04 0 0.02 0.04 0.04 0.04 c0.06 0 0.02 -0.08 -0.02 -0.08 c0 -0.06 0.08 0 0.08 0.04 c0.06 -0.02 -0.02 -0.08 0 -0.12 c0.24 0.3 0.66 0.06 0.94 0.2 c0.02 0 0.02 -0.02 0.02 -0.06 c0.12 0.08 0.14 -0.04 0.28 0.04 c0.06 -0.06 -0.12 -0.06 -0.12 -0.14 c0.08 0.04 0.2 0.02 0.22 0.02 c0.06 0.1 -0.04 0 -0.04 0.06 c0.26 0.18 0.62 0 0.9 0.12 c0.06 -0.02 0.1 -0.06 0.12 -0.12 c0.06 0.02 0 0.16 0.1 0.14 c0.06 -0.02 -0.04 -0.06 -0.02 -0.12 c0.06 0.08 0.18 0.14 0.14 0.24 c0.12 0 0.08 -0.04 0.08 -0.12 c0.08 0.08 0.18 -0.06 0.2 0.02 c0.06 0 0.02 -0.08 0.04 -0.12 c0.16 0.12 0.5 -0.04 0.8 0.12 c-0.2 0.06 -0.42 0.08 -0.66 0 c-0.08 0.04 -0.06 0.18 -0.18 0.16 c-0.08 0.02 -0.06 -0.08 -0.08 -0.12 c-0.06 0.14 -0.34 0.02 -0.32 0.18 c-0.1 0.02 -0.04 -0.12 -0.12 -0.12 c0 0.12 -0.06 0.06 -0.2 0.1 c0 -0.06 0.04 -0.06 0.08 -0.06 c0 -0.06 -0.14 -0.08 -0.1 0.02 c-0.06 -0.02 -0.04 -0.1 -0.14 -0.08 c-0.08 0 -0.08 0.06 -0.12 0.12 c-1.12 -0.14 -2.54 -0.1 -3.36 -0.06 c-0.1 0.04 -0.04 0.24 -0.16 0.24 c0 0.58 -0.36 1.1 -0.44 1.66 c-0.28 0.8 -0.68 1.84 -0.98 2.68 c-0.4 1.16 -1.2 1.92 -1.34 3.12 c0 0.28 0 0.52 -0.08 0.8 c0.02 0.34 0.04 0.72 -0.04 1.06 c0.02 0.96 0.1 2.06 0.76 2.62 c-0.98 -0.12 -1.2 -1.06 -1.36 -1.9 c-0.04 -0.44 -0.12 -1.08 -0.06 -1.58 c0.06 0 0.02 0.08 0.08 0.06 c0 -0.16 -0.04 -0.38 0.04 -0.48 c-0.12 0.06 -0.06 0.18 -0.1 0.26 c0 -0.36 -0.04 -0.7 0.12 -0.98 c-0.02 -0.28 0.02 -0.62 -0.16 -0.86 c0.1 -0.12 0.16 -0.28 0.28 -0.38 c0.3 -2.28 0.76 -3.96 1.32 -6.08 c-0.68 -0.12 -1.52 0.48 -2.12 0.08 c-0.1 -0.44 0 -0.94 0.5 -0.82 c0.54 -0.14 1.2 -0.14 1.9 -0.24 c0.32 -1 0.68 -2.32 1.04 -3.46 c0.38 -1.18 0.6 -2.5 1.48 -3.18 c0.78 0.06 0.9 0.94 0.68 1.7 c0.08 0.08 0.08 0.1 0.06 0.24 c0.04 0 0.02 -0.08 0.04 -0.1 c0.1 0.24 -0.18 0.44 -0.12 0.64 c-0.02 0 -0.02 -0.02 -0.06 -0.02 c-0.02 0.04 0 0.16 0.02 0.08 l0.02 0 z M16.04 5.5600000000000005 c-0.04 -0.14 -0.1 0.08 0 0 c-0.02 0.04 -0.02 0.08 -0.06 0.08 c0 -0.06 -0.02 -0.04 -0.02 0 l-0.02 0 c-0.04 0.04 -0.04 0.1 -0.02 0.16 c-0.04 0 -0.02 0.02 -0.04 0.04 l-0.02 0 c0.02 0.12 -0.12 0.22 -0.04 0.32 c0.02 -0.12 0.08 -0.18 0.06 -0.32 c0.04 0 0.02 -0.02 0.04 -0.04 l0.02 0 c0 -0.04 0 -0.06 0.02 -0.06 c-0.38 1.36 -0.9 2.96 -1.3 4.4 c0.22 0.04 0.28 -0.02 0.48 0 c0.54 -2 1.3 -3.82 1.42 -5.78 c-0.22 0.34 -0.38 0.76 -0.52 1.2 z M16.9 4.5600000000000005 c-0.08 0.08 0.08 0.08 0 0 l0 0 z M15.620000000000001 10.08 c-0.06 0.02 0.02 0.1 0 0 c0.1 -0.08 0 -0.12 -0.02 -0.2 c0.04 -0.12 0.14 -0.2 0.12 -0.36 c0.06 -0.04 0.08 0 0.14 -0.06 l0 -0.14 c-0.02 0 -0.06 0 -0.06 -0.02 c0.06 -0.12 0.04 -0.32 0.14 -0.38 c0 0.02 0 0.04 0.02 0.04 c0.02 -0.1 0.16 -0.2 0.08 -0.32 c-0.06 0.06 -0.02 0.18 -0.08 0.2 c-0.04 -0.12 0.06 -0.26 0.1 -0.36 c0.04 0 0 0.08 0.04 0.08 c0.1 -0.28 0.18 -0.46 0.24 -0.82 c-0.14 0.16 -0.14 0.6 -0.28 0.66 c0.28 -1.08 0.7 -2.2 0.84 -3.36 c0.02 0 0.02 -0.04 0 -0.04 c-0.04 -0.1 0.04 -0.12 0.06 -0.16 c-0.04 -0.02 -0.08 -0.06 -0.04 -0.1 c-0.14 0.34 -0.18 0.76 -0.22 1.1 c-0.04 0.02 -0.06 -0.02 -0.1 -0.02 c0 0.06 0.04 0.08 0.04 0.14 c-0.12 0.1 -0.28 0.52 -0.16 0.72 c-0.06 0.04 -0.08 -0.02 -0.14 0.02 c-0.22 1.16 -0.78 2.42 -0.98 3.46 c0.14 0.02 0.18 -0.08 0.24 -0.14 c0 0.04 0.02 0.04 0.02 0.06 z M16.12 5.199999999999999 c-0.02 0 0.02 0.02 0 0 c0.1 -0.04 -0.06 -0.08 0 0 z M15.68 5.359999999999999 c0.1 0.02 0 -0.08 0 0 l0 0 z M16.04 5.380000000000001 c0 0.02 -0.02 0 0 0 l0 0 z M15.64 5.4 c0.02 0.02 0 0 0 0 l0 0 z M16.68 5.460000000000001 c0.1 0.02 0 -0.08 0 0 l0 0 z M16.66 5.619999999999999 c0.02 0.1 0.02 -0.1 0 0 l0 0 z M17.02 5.68 c0.02 0 -0.02 -0.02 0 0 l0 0 z M17 5.699999999999999 c-0.04 0.14 0.1 0 0 0 l0 0 z M15.52 5.76 c0.02 0.02 0 0 0 0 l0 0 z M16.96 5.98 c0.04 -0.02 0.06 -0.14 0 -0.16 c0 0.08 -0.08 0.12 0 0.16 z M15.72 6.32 c0.08 0.04 0.06 -0.12 0.02 -0.12 c0.02 0.06 -0.02 0.06 -0.02 0.12 z M15.36 6.34 c-0.02 0 -0.02 0.04 -0.02 0.06 c-0.08 0.02 0.02 0.12 0 0 c0.02 0 0.02 -0.04 0.02 -0.06 c0.08 0 -0.02 -0.1 0 0 z M16.68 6.359999999999999 l0.04 0 l0 -0.04 l-0.04 0 l0 0.04 z M15.7 6.52 c0 -0.04 0.1 -0.16 0 -0.16 c0.02 0.08 -0.08 0.12 0 0.16 z M15.120000000000001 6.48 l0 0.06 c0.06 0.04 0.08 -0.08 0.02 -0.08 c0 0.02 0 0.04 -0.02 0.02 z M15.280000000000001 6.539999999999999 c0.04 0.1 0.04 -0.1 0 0 l0 0 z M16.88 6.640000000000001 c0 -0.02 0.04 -0.12 0 -0.12 c-0.02 0 -0.06 0.1 0 0.12 z M15.08 6.720000000000001 c-0.04 0.02 0 0.04 0 0 c0.04 -0.02 0.04 -0.1 0.06 -0.14 c-0.06 0 -0.06 0.08 -0.06 0.14 z M15.620000000000001 6.76 c0.02 -0.04 0.08 -0.16 0.02 -0.18 c0 0.04 -0.06 0.16 -0.02 0.18 z M16.64 6.6 c0.02 0.1 0.02 -0.08 0 0 l0 0 z M15.24 6.699999999999999 c0 0 0 -0.02 0.02 -0.02 c0 -0.02 0 -0.06 -0.04 -0.04 c0 0.02 0 0.06 0.02 0.06 z M15.2 6.92 c-0.04 -0.08 0.08 -0.16 -0.04 -0.16 c0.02 0.04 -0.02 0.16 0.04 0.16 z M16.56 6.779999999999999 l0 0.04 c0.06 0.04 0.08 -0.08 0.02 -0.06 c0 0 0 0.02 -0.02 0.02 z M15.02 6.9 c-0.02 0.02 0 0.02 0 0 l0.02 0 c-0.02 -0.08 0.04 -0.06 0.04 -0.12 c-0.08 -0.02 -0.04 0.08 -0.06 0.12 z M15.58 6.92 c0 -0.02 0.06 -0.1 0 -0.1 c0 0.02 -0.06 0.1 0 0.1 z M16.56 6.960000000000001 c0 0 0.06 -0.08 0 -0.08 c0 0 -0.06 0.08 0 0.08 z M15 7.039999999999999 c-0.02 -0.04 0.08 -0.08 0 -0.1 c0 0.02 -0.06 0.1 0 0.1 z M15.5 7.02 c0.1 0.02 0 -0.08 0 0 l0 0 z M16.44 7.24 c0.1 0.02 0.02 -0.12 0.12 -0.1 c-0.06 -0.06 0.06 -0.14 -0.04 -0.14 c-0.02 0.08 -0.06 0.14 -0.08 0.24 z M15.1 7.18 c0 -0.04 0.08 -0.18 0 -0.16 c0.02 0.06 -0.08 0.12 0 0.16 z M16.66 7.119999999999999 c0 -0.02 0 -0.04 0.02 -0.04 c0 -0.02 0 -0.04 -0.04 -0.04 c0 0.02 -0.02 0.06 0.02 0.08 z M14.879999999999999 7.359999999999999 c-0.08 0.04 0.08 0.06 0 0 l0.02 0 c0.02 -0.08 0.1 -0.2 0.06 -0.28 c-0.04 0.1 -0.06 0.18 -0.08 0.28 z M15.46 7.140000000000001 c0.08 0.08 0.04 -0.08 0 0 l0 0 z M15.46 7.300000000000001 c-0.02 -0.04 0.06 -0.08 0 -0.1 c0 0.02 -0.06 0.1 0 0.1 z M15.02 7.359999999999999 c-0.08 0.04 0.08 0.06 0 0 c0.08 -0.04 -0.02 -0.14 0 0 z M16.44 7.300000000000001 c0.02 0.1 0.02 -0.1 0 0 l0 0 z M14.96 7.539999999999999 c0.06 0.02 0.06 -0.04 0.06 -0.1 c-0.08 -0.02 -0.02 0.08 -0.06 0.1 z M15.379999999999999 7.5 c0.02 0.02 0 -0.02 0 0 l0 0 z M14.76 7.720000000000001 c0.08 -0.06 0.12 -0.14 0.08 -0.22 c-0.02 0.08 -0.06 0.12 -0.08 0.22 z M16.56 7.5600000000000005 l0.04 0 l0 -0.04 l-0.04 0 l0 0.04 z M15.36 7.6 c-0.04 0 0 0.02 0 0 c0.04 -0.02 0 -0.04 0 0 z M14.92 7.66 c0.04 0.1 0.04 -0.1 0 0 l0 0 z M16.32 7.720000000000001 c0.02 0 0 -0.02 0 0 l0 0 z M14.879999999999999 7.74 l0 0.04 c0.06 0.04 0.08 -0.08 0.02 -0.06 c0 0 0 0.02 -0.02 0.02 z M14.72 8 c-0.02 -0.08 0.16 -0.22 0.02 -0.26 c0.04 0.12 -0.1 0.2 -0.02 0.26 z M15.26 7.84 c0.02 0 0 -0.02 0 0 l0 0 z M16.46 7.859999999999999 c-0.02 0.14 0.02 -0.1 0 0 l0 0 z M14.86 7.880000000000001 l0 0 c0.04 -0.12 -0.06 0.12 0 0 z M14.84 8.04 c0 0 0 -0.02 0.02 -0.02 c0 -0.02 -0.02 -0.06 -0.06 -0.04 c0.02 0.02 0 0.06 0.04 0.06 z M14.620000000000001 8.2 c0.06 0 0.1 -0.12 0.04 -0.16 c-0.02 0.04 0 0.12 -0.04 0.16 z M15.2 8.08 c-0.02 0.14 0 -0.1 0 0 l0 0 z M14.74 8.4 c0.02 -0.06 0.08 -0.18 0.02 -0.24 c0.02 0.1 -0.08 0.2 -0.02 0.24 z M14.44 8.76 c-0.12 0.4 -0.32 1.02 -0.38 1.4 c0.14 -0.38 0.38 -1.06 0.38 -1.4 c0.08 -0.14 0.2 -0.36 0.18 -0.54 c-0.1 0.1 -0.14 0.38 -0.18 0.54 z M15.14 8.28 c-0.06 0.08 0.08 -0.04 0 0 l0 0 z M14.68 8.48 l-0.02 0 c-0.04 0.24 -0.12 0.34 -0.14 0.58 c0.08 -0.1 0.16 -0.38 0.16 -0.58 c0.04 -0.02 0 -0.02 0 0 z M14.780000000000001 8.48 c-0.02 0.14 0.02 -0.1 0 0 l0 0 z M15.08 8.48 c0 0.02 -0.02 0 0 0 l0 0 z M15.08 8.64 c-0.02 -0.02 0 -0.08 -0.04 -0.08 c-0.02 0.02 -0.02 0.08 0.04 0.08 z M14.98 8.84 c0.02 0.02 -0.02 0 0 0 l0 0 z M14.96 8.94 c0 0.02 -0.02 -0.02 0 0 l0 0 z M15.94 9.04 c0.02 0.02 0.02 0 0 0 c-0.02 -0.04 -0.04 0 0 0 z M14.2 10.16 c0.16 -0.34 0.22 -0.68 0.34 -1.06 l-0.06 0 c-0.08 0.42 -0.24 0.72 -0.28 1.06 z M14.86 9.22 c0.08 0.02 0.04 -0.08 0.06 -0.1 c-0.06 -0.02 -0.02 0.08 -0.06 0.1 z M15.86 9.28 c0.02 0 0 -0.02 0 0 l0 0 z M14.780000000000001 9.54 c-0.02 0.02 0 0.02 0 0 c0.04 -0.02 0.04 -0.06 0.06 -0.1 c-0.08 -0.02 -0.04 0.06 -0.06 0.1 z M14.72 9.82 c0 0 0.04 -0.1 0 -0.12 c0.02 0.06 -0.08 0.1 0 0.12 z M15.74 9.72 c0.02 0.02 0 0 0 0 l0 0 z M15.7 9.88 c-0.06 0.08 0.08 -0.06 0 0 l0 0 z M14.66 9.92 c-0.02 0.14 0.02 -0.1 0 0 l0 0 z M15.44 10.44 c0 0.04 0.02 0 0 0 c0 -0.04 0.08 -0.04 0.06 -0.12 c-0.06 0 -0.18 -0.04 -0.24 0.04 c0.12 0.04 -0.1 0 -0.02 0.18 c0.06 0 0.06 -0.08 0.16 -0.04 c0 -0.04 0.02 -0.04 0.04 -0.06 z M14.879999999999999 10.44 c0 -0.04 -0.04 -0.06 -0.08 -0.08 c-0.1 0.04 -0.16 0 -0.2 0.06 c0.1 -0.02 0.06 0.12 0.2 0.1 c0.04 -0.06 -0.06 -0.1 0 -0.12 c0.02 0.04 0.04 0.04 0.04 0.1 c0.08 0.04 0.26 -0.04 0.18 -0.14 c0 0.12 -0.06 0.02 -0.14 -0.04 c-0.04 0.06 0.08 0.1 0 0.12 z M15.52 10.36 c0.02 0 0 -0.02 0 0 l0 0 z M16.9 10.62 c0.08 0.08 0.04 -0.08 0 0 l0 0 z M15.32 10.66 c0.02 0 0.02 0.02 0.04 0.02 c0 -0.02 0 -0.08 -0.04 -0.06 l0 0.04 z M19.560000000000002 10.8 c0 -0.04 -0.02 -0.06 -0.04 -0.06 c0 0.04 -0.02 0.08 0.04 0.06 z M19.42 10.8 l0.04 0 l0 -0.04 l-0.04 0 l0 0.04 z M18.04 10.86 c0.02 -0.06 -0.04 -0.04 -0.06 -0.08 c0 0.06 0.02 0.08 0.06 0.08 z M18.22 10.84 c0.02 0.08 0.02 -0.1 0 0 l0 0 z M14.84 12.6 c0.06 -0.02 0 -0.06 0.06 -0.12 c-0.02 0.02 -0.06 0.02 -0.06 -0.02 c0.08 -0.14 0.22 -0.26 0.14 -0.48 c0.06 -0.02 0.06 0 0.12 -0.04 c0.02 -0.18 0.06 -0.4 0.14 -0.5 c-0.06 -0.02 -0.08 -0.22 0.02 -0.24 l0 0.04 c-0.06 0 0.02 0.1 0 0 c0.06 -0.06 0.06 -0.24 0 -0.28 c-0.04 0.02 -0.1 0 -0.18 0.02 c-0.1 0.56 -0.38 0.96 -0.44 1.42 c-0.14 0.26 -0.28 0.6 -0.34 0.96 l-0.06 -0.06 c-0.04 0.1 0.04 0.24 0 0.26 c-0.06 0.02 0 -0.1 -0.08 -0.06 c-0.08 0.48 -0.3 0.8 -0.44 1.26 c0.1 -0.06 0.06 -0.06 0.16 0 c0.16 -0.5 0.44 -0.98 0.6 -1.44 c0.06 0 -0.02 0.12 0.04 0.1 c0 -0.04 0.02 -0.06 0.04 -0.06 c0.02 -0.1 -0.08 -0.06 -0.06 -0.16 c0.06 0.02 0.08 0.06 0.12 0 c-0.06 -0.08 -0.06 -0.26 0.06 -0.16 c0.08 -0.12 -0.08 -0.08 -0.06 -0.22 c0.06 0 0.04 0.06 0.06 0.06 c0.08 -0.08 -0.06 -0.1 0 -0.16 c0.04 0.02 0.06 0.04 0.1 0.06 c0 -0.08 0.04 -0.1 0.06 -0.18 z M14.4 11.02 c-0.34 1.12 -0.48 2.2 -0.86 3.26 c0.08 0.18 -0.14 0.36 -0.02 0.46 c0.48 -1.24 0.98 -2.54 1.34 -3.74 c-0.22 -0.04 -0.32 0.04 -0.46 0.02 z M13.44 12.4 c-0.14 0.22 -0.26 0.54 -0.16 0.74 c0.2 -0.64 0.34 -1.46 0.52 -2.04 l-0.08 0 c-0.1 0.54 -0.26 0.78 -0.28 1.3 z M13.82 11.38 c0.08 -0.02 0.16 -0.24 0.08 -0.26 c-0.04 0.1 -0.06 0.2 -0.08 0.26 z M13.72 11.94 c0.02 -0.2 0.2 -0.44 0.08 -0.54 c0.02 0.2 -0.18 0.38 -0.08 0.54 z M13.64 12.04 c0.1 0.02 0 -0.08 0 0 l0 0 z M13.64 12.16 c0.06 0.02 0.06 -0.12 0 -0.08 l0 0.08 z M13.64 12.24 c0.02 0.1 0.02 -0.08 0 0 l0 0 z M13.52 12.76 c-0.04 0 0 0.02 0 0 l0.02 0 c0.04 -0.1 0.04 -0.24 0.06 -0.34 c-0.08 0.04 -0.1 0.24 -0.08 0.34 z M13.44 13.14 c-0.02 -0.12 0.1 -0.22 0.02 -0.32 c-0.02 0.08 -0.1 0.28 -0.02 0.32 z M13.52 13 c0 0 -0.02 -0.02 0 0 l0 0 z M13.36 13.36 c0 -0.08 0.1 -0.18 0 -0.2 c0 0.06 -0.04 0.12 0 0.2 z M12.86 14.8 c-0.02 0.02 0 0.06 -0.04 0.06 c-0.04 -0.12 -0.08 0.08 0 0 c0.04 0.16 -0.08 0.06 -0.1 0.1 c0.02 0.02 0.06 0.02 0.08 0.04 c-0.12 0.32 -0.24 0.6 -0.2 0.9 c-0.08 0.04 -0.06 0.12 -0.08 0.28 c-0.04 0.04 -0.08 0.2 -0.02 0.3 c-0.04 -0.04 -0.08 -0.02 -0.06 0.04 c0.02 0 0.06 0 0.06 0.02 c0 0.08 -0.1 0.1 -0.12 0.18 c0.02 0.02 0.08 0 0.08 0.04 c-0.08 0 -0.12 0.1 -0.02 0.12 c-0.06 0.04 -0.16 0.16 -0.06 0.22 c-0.04 -0.12 0.14 -0.14 0.06 -0.22 c0 -0.06 0.02 -0.02 0.04 -0.02 c0.14 -0.9 0.28 -1.4 0.38 -2.06 c0.12 -0.6 0.36 -1.04 0.34 -1.62 c-0.08 0.14 -0.08 0.44 -0.16 0.58 c0.1 0.1 -0.14 0.2 -0.04 0.34 c-0.04 0.02 -0.06 -0.08 -0.06 0.02 c0.1 0.14 -0.18 0.52 -0.14 0.68 l0.06 0 z M13.3 13.440000000000001 c0.02 0.02 -0.02 0 0 0 l0 0 z M13.24 13.76 c0.04 -0.12 0.1 -0.16 0.04 -0.26 c0.02 0.1 -0.1 0.18 -0.04 0.26 z M14.44 13.559999999999999 c0.02 -0.02 0.06 -0.04 0 -0.06 c0 0.02 -0.04 0.06 0 0.06 z M14.38 13.74 c-0.06 0.08 0.08 -0.06 0 0 l0 0 z M13.18 13.98 c0.06 0 0.04 -0.08 0.06 -0.12 c-0.06 -0.02 -0.06 0.04 -0.06 0.12 z M13.16 14.04 c0.1 0.04 0 -0.06 0 0 l0 0 z M13.06 14.5 l-0.02 0 c0 0.14 -0.1 0.18 -0.04 0.3 c-0.1 0.08 -0.06 0.3 -0.12 0.42 c0.14 -0.1 0.06 -0.28 0.12 -0.42 c0.08 -0.04 0.04 -0.16 0.06 -0.3 c0.08 -0.04 0.08 -0.26 0.06 -0.36 c-0.02 0.12 -0.06 0.3 -0.06 0.36 z M13.68 14.879999999999999 c0 -0.02 0.04 -0.04 0 -0.06 c0 0.02 -0.04 0.06 0 0.06 z M13.8 14.84 c0.02 0.02 0 0 0 0 l0 0 z M13.66 15.059999999999999 c0.02 0.1 0.02 -0.1 0 0 l0 0 z M12.88 15.3 c0.02 0.02 0 -0.02 0 0 l0 0 z M12.86 15.4 c0.04 0.08 0.04 -0.1 0 0 l0 0 z M12.76 15.96 c0 -0.1 0.14 -0.28 0.08 -0.42 c-0.02 0.12 -0.12 0.3 -0.08 0.42 z M12.68 16.44 c0.02 -0.14 0.14 -0.28 0.04 -0.4 c-0.02 0.16 -0.08 0.26 -0.04 0.4 z M12.12 18.52 l0 0 c0.1 0 -0.02 0.14 0 0 z M12.14 18.8 c0.02 -0.06 0.06 -0.1 -0.02 -0.12 c0.02 0.04 -0.02 0.12 0.02 0.12 z M12.32 18.8 c0.1 0.02 0 -0.08 0 0 l0 0 z M12.12 18.9 c0 -0.04 0.04 -0.06 0 -0.08 c0 0.04 -0.04 0.06 0 0.08 z M12.32 18.9 c0.06 0.1 0.02 -0.08 0 0 l0 0 z M12.28 19.06 c0.08 0.04 0.08 -0.1 0.04 -0.1 c0 0.06 -0.04 0.06 -0.04 0.1 z M12.1 19.14 c0.06 0 0.1 -0.04 0.1 -0.1 c-0.06 0 -0.1 0.04 -0.1 0.1 z M12.28 19.52 c-0.02 0.14 0.02 -0.1 0 0 l0 0 z M12.26 19.62 c0.04 0.08 0.06 -0.1 0 0 l0 0 z M12.1 19.8 c-0.02 -0.02 0.02 -0.12 -0.02 -0.12 c-0.02 0.06 -0.06 0.12 0.02 0.12 z M12.28 19.92 c0 -0.04 0.04 -0.16 -0.04 -0.14 c0.02 0.04 0 0.12 0.04 0.14 z M12.14 19.96 c-0.02 -0.1 0.06 -0.14 -0.02 -0.16 c0.02 0.08 -0.06 0.14 0.02 0.16 z M12.26 20.2 c0.02 -0.06 0.04 -0.16 0 -0.22 c-0.02 0.02 -0.04 0.18 0 0.22 z M12.12 20.02 c0.02 0.1 0.02 -0.1 0 0 l0 0 z M12.12 20.2 c-0.02 0.1 0.08 0 0 0 c-0.02 -0.06 0.08 -0.08 0 -0.1 c0 0.02 -0.04 0.02 -0.04 0.04 c0.02 0.02 0 0.06 0.04 0.06 z M12.26 20.6 c-0.02 -0.12 0.04 -0.28 -0.02 -0.36 c0.02 0.16 -0.06 0.26 0.02 0.36 z M12.14 20.4 c0 -0.02 0.04 -0.12 -0.02 -0.12 c-0.04 0.04 -0.04 0.12 0.02 0.12 z M12.1 20.52 c-0.02 0.16 0.02 -0.08 0 0 l0 0 z M12.24 20.64 c-0.04 0.24 0.08 0.26 0 0 l0 0 z M17.240000000000002 4.4399999999999995 l0 0 c-0.02 0.16 0 -0.08 0 0 z M17.2 4.619999999999999 c0.04 -0.08 0.08 0.08 0 0 l0 0 z M16.9 5 c-0.04 0 -0.02 0.04 0 0.04 l0 -0.04 z M17.16 5.140000000000001 c-0.02 -0.18 0.08 -0.08 0 0 l0 0 z M17.16 5.140000000000001 c0 0.04 -0.04 0.02 0 0 l0 0 z M15.96 5.640000000000001 l0.02 0 c0 0.04 0.02 0.1 -0.02 0.1 l0 -0.1 z M17.04 6.0600000000000005 c0 -0.04 0.04 -0.02 0 0 l0 0 z M16.56 6.18 c0.04 -0.08 0.08 0.08 0 0 l0 0 z M16.54 6.24 c0.08 0.1 -0.06 0.14 0 0 l0 0 z M16.48 6.4 c0.04 0 0.06 0.02 0.06 0.06 c-0.06 0.02 -0.04 -0.02 -0.06 -0.06 z M16.4 6.82 c0 -0.06 0.1 0.02 0 0 l0 0 z M16.34 7.039999999999999 c-0.02 -0.1 0.08 0 0 0 l0 0 z M16.34 7.039999999999999 c0.02 0.1 -0.06 0 0 0 l0 0 z M16.12 7.779999999999999 c0.04 -0.1 0.04 0.1 0 0 l0 0 z M16 8.04 l0.06 0 l0 0.1 l-0.06 0 l0 -0.1 z M15.94 8.34 l0 0 c0.02 0.02 -0.02 -0.02 0 0 z M15.82 8.82 l0 0 c0.02 0.02 -0.02 -0.02 0 0 z M15.74 9.4 l0.06 0 l0 0.04 c-0.02 0 -0.02 0.02 -0.04 0.02 l-0.04 0 l0 -0.04 c0.02 0 0.02 -0.02 0.02 -0.02 z M16.7 10.4 c-0.16 0.08 -0.12 -0.06 0 0 l0 0 z M17.16 10.6 c-0.06 -0.04 -0.08 -0.1 -0.1 -0.18 c0.06 0.04 0.08 0.1 0.1 0.18 z M17.8 10.44 c0.04 -0.08 0.08 0.08 0 0 l0 0 z M17.96 10.44 c0.1 0.02 0.16 0.04 0.18 0.12 c-0.1 0 -0.12 -0.12 -0.16 0 c-0.08 0.04 -0.04 -0.1 -0.02 -0.12 z M18.740000000000002 10.48 c0.08 -0.02 0.02 0.08 0.08 0.08 c-0.04 0.08 -0.06 -0.06 -0.08 -0.08 z M17.44 10.52 l0 0 c0.02 0.02 0 0 0 0 z M17.52 10.5 c0.04 0 0.06 0.02 0.1 0.02 c0 0.04 -0.14 0.04 -0.1 -0.02 z M19.04 10.52 c0 -0.02 0.04 -0.02 0.06 -0.02 l0 0.06 c-0.02 0 -0.04 -0.04 -0.06 -0.04 z M19.18 10.5 c0.06 0 0.06 0.08 0.02 0.12 c-0.06 0 0 -0.08 -0.02 -0.12 z M17.740000000000002 10.54 c0.04 -0.08 0.08 0.08 0 0 l0 0 z M17.84 10.54 c0.02 -0.1 0.02 0.1 0 0 l0 0 z M18.22 10.54 c0.02 -0.1 0.02 0.1 0 0 l0 0 z M18.88 10.52 c0.02 0.02 0.04 0.02 0.08 0.02 c0 0.04 -0.08 0.02 -0.08 0.08 c-0.06 -0.02 0.04 -0.06 0 -0.1 z M18.7 10.56 l0 0 c-0.02 -0.02 -0.04 0.02 0 0 z M18.7 10.56 l0 0 c0.02 0.04 0.02 0 0 0 z M19.44 10.6 c0.04 -0.08 0.06 0.08 0 0 l0 0 z M19.8 10.6 c0.04 0 0.06 0.04 0.04 0.08 c-0.04 0 -0.04 -0.04 -0.04 -0.08 z M19.9 10.6 c0.02 0 0.04 0.04 0.04 0.08 c-0.04 0 -0.04 -0.04 -0.04 -0.08 z M20.96 10.76 c0.02 -0.1 0.02 0.1 0 0 l0 0 z M20.38 10.86 c0.02 -0.1 0.02 0.1 0 0 l0 0 z M20.259999999999998 10.9 c0 -0.06 0.1 0.02 0 0 l0 0 z M15 11.84 c0.06 -0.06 0 0.22 0 0 l0 0 z M14.76 12.16 c0 -0.08 0.1 0.02 0 0 l0 0 z M14.84 12.6 c-0.04 0 -0.06 -0.04 -0.04 -0.04 s0.04 0.02 0.04 0.04 z M14.3 13.4 l0 0 c0.02 0.02 0 0 0 0 z M13.84 14.620000000000001 l0 0 c0.02 0.02 0 0 0 0 z M12.6 15.780000000000001 c0.02 -0.1 0.02 0.1 0 0 l0 0 z M12.58 16.02 l0 0 c0.02 0.02 -0.02 -0.02 0 0 z M12.52 16.18 c0.04 0 0.02 0.04 0 0 l0 0 z M12.1 18.42 l0 0 c0.02 0.02 -0.02 -0.02 0 0 z M12.08 21.18 l0 0.06 c-0.04 0 -0.06 -0.02 -0.06 -0.06 l0.06 0 z M19.02 17.44 c1.04 -0.2 2.1 -0.58 2.98 -1 c0.08 0.02 0.18 -0.02 0.24 0.04 c-0.04 0.14 0.02 0.2 0.06 0.28 c-0.28 0.16 -0.54 0.34 -0.84 0.48 c-0.02 -0.06 0 -0.06 -0.02 -0.14 c-0.04 0.06 -0.1 0.1 -0.14 0 c-0.06 0.02 -0.06 0.1 -0.1 0.14 c0 0.02 0.04 0.02 0.04 0.04 c0.08 0.04 0.06 -0.04 0.06 -0.08 c0.2 0.1 -0.1 0.12 -0.12 0.24 c-0.08 0 -0.04 -0.08 -0.12 -0.06 c-0.12 0.02 0 0.18 -0.06 0.2 c-0.08 0.02 -0.04 -0.14 -0.02 -0.14 c-0.12 0.04 -0.16 0.14 -0.26 0.2 c-0.08 0.02 -0.04 -0.06 -0.1 -0.06 c-0.04 0 -0.04 0.06 -0.04 0.12 c-0.08 0.02 -0.04 -0.08 -0.08 -0.1 c-0.06 0 -0.1 0.1 -0.16 0.02 c-0.08 0.04 0.06 0.06 0.04 0.12 c-0.1 -0.06 -0.14 0.04 -0.26 -0.04 c-0.02 0.1 0.14 0.02 0.12 0.12 c-0.08 0 -0.1 0.02 -0.16 0 l0 -0.1 c-0.12 0.02 -0.12 0.02 -0.22 0.02 c-0.02 0.08 -0.02 0.1 -0.1 0.02 c-0.06 0.06 0.06 0.06 0.02 0.16 c-0.34 0.1 -1.2 0.06 -1.22 0.54 c-0.46 0.62 -0.74 1.5 -1.7 1.52 c-1.34 -0.28 -1.14 -2.38 -0.32 -3.06 c0 -0.1 0.02 -0.18 -0.02 -0.26 c0.14 -1.44 1.92 -1.26 2.54 -0.38 c0.18 0.38 0.16 0.8 -0.04 1.16 z M18.2 16.04 c-0.36 0.26 -0.98 0.4 -0.82 1 c-0.12 0.1 -0.26 0.24 -0.26 0.4 c0.26 0.14 0.72 0.18 1.04 0.14 c0.18 -0.48 0.52 -1.16 0.04 -1.54 z M18.76 16.66 c0 0.02 -0.02 0 0 0 l0 0 z M21.76 16.96 c0.02 0.08 0.02 -0.1 0 0 l0 0 z M21.48 17.1 c0.1 0.02 0.02 -0.08 0 0 l0 0 z M21.12 17.259999999999998 c-0.02 -0.06 0.04 -0.06 0.04 -0.12 c-0.14 -0.02 -0.12 0.12 -0.04 0.12 z M20.98 17.34 c0.06 0 0.1 0 0.1 -0.06 c-0.04 0 -0.04 -0.04 -0.08 -0.04 c0 0.04 -0.02 0.04 -0.02 0.1 z M20.84 17.32 l0.08 0 c0 -0.06 -0.04 -0.06 -0.08 -0.06 l0 0.06 z M20.26 17.46 c0.2 -0.04 0.4 0.02 0.6 -0.08 c-0.14 -0.02 -0.28 0 -0.4 -0.06 c0.02 0.12 -0.18 0.04 -0.2 0.14 z M18.66 17.5 c0.02 0.02 -0.02 0 0 0 l0 0 z M19.76 17.52 c0 0.18 0.3 0.1 0.36 0.04 c-0.14 -0.1 -0.22 0 -0.36 -0.04 z M19.64 17.62 c-0.12 -0.02 0.02 0.12 0.02 0.02 l0.08 0 c0 -0.06 -0.04 -0.08 -0.1 -0.06 l0 0.04 z M19.42 17.68 c-0.04 -0.02 -0.04 -0.08 -0.12 -0.06 c-0.04 0.1 0.12 0.14 0.12 0.06 z M16.8 17.7 c-0.18 0.44 -0.54 1.04 -0.28 1.68 c0.72 -0.12 0.98 -0.68 1.3 -1.2 c-0.44 -0.06 -0.72 -0.28 -1.02 -0.48 z M19.240000000000002 17.72 c0 0.02 -0.02 -0.02 0 0 l0 0 z M19.62 17.84 c0.08 0.08 0.04 -0.08 0 0 l0 0 z M19.4 17.88 c-0.02 0 -0.12 -0.04 -0.12 0 c0.04 0.04 0.1 0.1 0.12 0 z M19.42 17.88 c0.1 0.04 0.02 -0.06 0 0 l0 0 z M19.54 17.88 c0.02 0.04 0.04 0 0 0 c0 -0.02 -0.02 0.02 0 0 z M19.240000000000002 17.92 c0.06 0.08 0.02 -0.08 0 0 l0 0 z M19.080000000000002 17.96 c-0.02 0 -0.02 -0.04 -0.06 -0.02 c-0.04 0.06 0.08 0.06 0.06 0.02 z M19.64 17.62 c0.02 0 0.02 0 0.02 0.02 c0 0 -0.02 0 -0.02 -0.02 z M27.46 15.8 c-0.08 -0.06 -0.18 -0.12 -0.28 -0.16 c-0.64 0.26 -1.08 0.82 -1.64 1.04 c-0.04 0.18 -0.12 0.32 -0.28 0.36 c-0.6 0.84 -1.2 1.66 -1.68 2.6 c-0.06 0.46 -0.28 0.74 -0.66 0.88 c-1 -0.46 -0.42 -2.04 -0.32 -2.94 c0.2 -0.46 0.22 -1.16 0.44 -1.52 c0.88 0.2 0.52 1.14 0.42 1.78 c0.46 -0.7 1.04 -1.28 1.62 -1.88 c0.54 -0.46 1.9 -1.1 2.38 -0.16 z M25.98 15.66 c0.14 0.02 0.14 -0.1 0.24 -0.06 c-0.06 -0.14 0.16 -0.02 0.18 -0.16 c-0.14 0.04 -0.26 0.06 -0.32 0.04 c-1.1 0.64 -1.98 1.68 -2.58 2.8 c0.7 -1 1.46 -1.94 2.48 -2.62 z M26.46 15.46 c0.02 0.02 -0.02 0 0 0 l0 0 z M26.560000000000002 15.64 c0 0.04 -0.02 0.06 -0.04 0.08 c0.08 -0.02 0.18 -0.02 0.2 -0.12 c-0.06 0.02 -0.1 0.04 -0.16 0.04 z M26.36 15.82 c0.08 0 0.1 -0.06 0.14 -0.1 c-0.08 -0.04 -0.2 0 -0.14 0.1 z M25.8 16.12 c0.18 -0.02 0.3 -0.24 0.46 -0.24 c-0.02 -0.06 0.08 -0.14 -0.02 -0.12 c-0.12 0.14 -0.32 0.22 -0.44 0.36 z M26.080000000000002 16.04 c-0.06 0.08 0.08 -0.06 0 0 l0 0 z M25.64 16.28 c0.06 -0.04 0.14 -0.06 0.16 -0.14 c-0.06 0.04 -0.22 0.06 -0.16 0.14 z M25.380000000000003 16.62 c0.04 -0.08 0.16 -0.1 0.16 -0.22 l-0.06 0 c0.02 0.12 -0.18 0.14 -0.1 0.22 z M25.18 16.78 c0 0 0 -0.02 0.02 -0.02 c0 -0.02 0 -0.06 -0.04 -0.04 c0 0.02 0 0.06 0.02 0.06 z M25.98 15.66 c-0.02 0 -0.04 -0.02 0 -0.02 l0 0.02 z M25.28 16.08 l0 0 c0.02 0.02 -0.02 0 0 0 z M22.48 16.62 c0 -0.08 0.1 0.02 0 0 l0 0 z M31.400000000000002 15.66 c-0.06 0.34 0 0.56 -0.32 0.74 c-0.24 0.6 -0.82 0.88 -1.26 1.28 c-0.38 0.08 -0.84 0.34 -1.2 0.08 c-0.22 0.3 -0.24 0.66 -0.34 1.1 c0.82 0.58 2.02 -0.18 2.86 -0.44 c0.46 -0.26 0.96 -0.52 1.48 -0.74 c0.06 -0.08 0.18 -0.1 0.24 -0.16 c0.06 0.18 -0.36 0.28 -0.5 0.42 c0 0.04 0.04 0.02 0.08 0.02 c-0.56 0.5 -1.18 0.8 -1.92 1.06 c0.14 0 0.44 0 0.62 -0.1 c-0.02 0.1 -0.1 0.12 -0.18 0.16 c0 0.04 0.12 -0.02 0.08 0.06 c-0.24 0.08 -0.46 0.32 -0.58 0.24 c-0.1 0.04 -0.02 0.08 -0.06 0.14 c-0.54 0.24 -0.9 0.4 -1.6 0.4 c-0.96 -0.2 -1.08 -1.14 -0.96 -2 c0.36 -1.1 1.14 -2.32 2.24 -2.86 c0.2 -0.1 0.44 -0.06 0.64 -0.06 c0.16 0.02 0.2 0.14 0.34 0.16 c0.04 0.24 0.2 0.36 0.34 0.5 z M29.84 16.02 c0.08 0.02 0.14 -0.14 0.2 -0.06 c-0.34 0.26 -0.64 0.54 -0.9 0.88 c0.66 -0.34 1.26 -0.74 1.64 -1.34 c-0.34 0.14 -0.74 0.24 -0.94 0.52 z M29.720000000000002 16.1 c0.02 0.02 0 -0.02 0 0 l0 0 z M29.560000000000002 19.2 c0.06 0.02 0.14 -0.04 0.12 0.12 c0.1 -0.06 0.16 -0.1 0.26 0 c0.04 -0.04 -0.04 -0.12 0.04 -0.12 c0.14 0 0.38 -0.1 0.5 -0.18 c-0.3 0.16 -0.68 0.06 -0.92 0.18 z M32.94 17.48 l0 0 c0.04 0 0 -0.02 0 0 z M32.94 17.48 c0 0.04 -0.04 0.02 0 0 l0 0 z M31.080000000000002 19.04 c0.04 -0.08 0.04 0.1 0 0 l0 0 z"></path></g>
			</g>
		</svg>
	